<svg width="864" height="200" viewBox="0 0 864 200" fill="none" xmlns="http://www.w3.org/2000/svg">
<path d="M224 146.749V55.3233H255.148C265.426 55.3233 273.25 57.3955 278.619 61.5397C283.986 65.684 286.67 71.8586 286.67 80.0635C286.67 84.2496 285.547 88.0172 283.3 91.3661C281.053 94.715 277.765 97.3104 273.437 99.1523C278.348 100.492 282.134 103.024 284.798 106.751C287.502 110.434 288.856 114.871 288.856 120.063C288.856 128.644 286.109 135.237 280.616 139.842C275.164 144.446 267.341 146.749 257.146 146.749H224ZM239.792 105.495V134.065H257.333C262.284 134.065 266.155 132.83 268.943 130.361C271.731 127.89 273.126 124.457 273.126 120.063C273.126 110.559 268.298 105.704 258.644 105.495H239.792ZM239.792 93.815H255.272C260.183 93.815 264.011 92.7056 266.758 90.487C269.546 88.2265 270.94 85.0449 270.94 80.9426C270.94 76.4215 269.65 73.1563 267.07 71.147C264.532 69.1376 260.558 68.1329 255.148 68.1329H239.792V93.815ZM319.317 146.749H304.148V78.8076H319.317V146.749ZM303.212 61.163C303.212 58.8188 303.941 56.8722 305.397 55.3233C306.895 53.7744 309.017 53 311.764 53C314.51 53 316.632 53.7744 318.131 55.3233C319.629 56.8722 320.378 58.8188 320.378 61.163C320.378 63.4654 319.629 65.391 318.131 66.9399C316.632 68.4469 314.51 69.2004 311.764 69.2004C309.017 69.2004 306.895 68.4469 305.397 66.9399C303.941 65.391 303.212 63.4654 303.212 61.163ZM354.896 61.2886V77.8029H366.819V89.1055H354.896V127.032C354.896 129.627 355.395 131.511 356.394 132.683C357.435 133.814 359.266 134.379 361.887 134.379C363.635 134.379 365.404 134.169 367.193 133.75V145.555C363.74 146.519 360.41 147 357.206 147C345.554 147 339.728 140.532 339.728 127.598V89.1055H328.617V77.8029H339.728V61.2886H354.896ZM406.207 134.818C409.993 134.818 413.135 133.709 415.632 131.49C418.129 129.271 419.46 126.53 419.627 123.265H433.922C433.755 127.492 432.444 131.449 429.989 135.133C427.534 138.774 424.204 141.663 420.001 143.797C415.799 145.933 411.262 147 406.394 147C396.948 147 389.457 143.924 383.922 137.769C378.387 131.616 375.62 123.118 375.62 112.276V110.706C375.62 100.366 378.366 92.0987 383.859 85.9031C389.352 79.6658 396.843 76.5471 406.331 76.5471C414.362 76.5471 420.896 78.9123 425.932 83.6426C431.008 88.3311 433.672 94.5057 433.922 102.166H419.627C419.46 98.2732 418.129 95.0708 415.632 92.5591C413.177 90.0474 410.035 88.7916 406.207 88.7916C401.296 88.7916 397.509 90.5917 394.845 94.1917C392.183 97.7498 390.83 103.171 390.788 110.455V112.903C390.788 120.272 392.099 125.776 394.721 129.418C397.384 133.018 401.213 134.818 406.207 134.818ZM442.535 111.145C442.535 104.49 443.846 98.5033 446.468 93.187C449.089 87.8288 452.772 83.7263 457.516 80.8798C462.26 77.9913 467.712 76.5471 473.871 76.5471C482.983 76.5471 490.37 79.4983 496.03 85.4008C501.731 91.3033 504.811 99.1312 505.268 108.885L505.331 112.464C505.331 119.162 504.041 125.148 501.46 130.423C498.922 135.697 495.26 139.778 490.474 142.668C485.73 145.555 480.237 147 473.995 147C464.466 147 456.83 143.818 451.087 137.456C445.386 131.051 442.535 122.532 442.535 111.899V111.145ZM457.703 112.464C457.703 119.455 459.14 124.939 462.01 128.916C464.882 132.851 468.877 134.818 473.995 134.818C479.114 134.818 483.088 132.809 485.918 128.79C488.789 124.772 490.224 118.89 490.224 111.145C490.224 104.28 488.747 98.8378 485.793 94.8196C482.88 90.8009 478.906 88.7916 473.871 88.7916C468.918 88.7916 464.986 90.78 462.073 94.7568C459.16 98.6922 457.703 104.595 457.703 112.464ZM534.294 146.749H519.126V78.8076H534.294V146.749ZM518.189 61.163C518.189 58.8188 518.918 56.8722 520.374 55.3233C521.872 53.7744 523.994 53 526.741 53C529.487 53 531.61 53.7744 533.108 55.3233C534.606 56.8722 535.355 58.8188 535.355 61.163C535.355 63.4654 534.606 65.391 533.108 66.9399C531.61 68.4469 529.487 69.2004 526.741 69.2004C523.994 69.2004 521.872 68.4469 520.374 66.9399C518.918 65.391 518.189 63.4654 518.189 61.163ZM564.942 78.8076L565.379 86.6566C570.373 80.5867 576.927 77.5518 585.042 77.5518C599.107 77.5518 606.265 85.652 606.515 101.852V146.749H591.346V102.732C591.346 98.4197 590.41 95.2383 588.538 93.187C586.707 91.094 583.69 90.0474 579.487 90.0474C573.369 90.0474 568.813 92.8312 565.816 98.3988V146.749H550.648V78.8076H564.942ZM690.097 117.236C689.056 126.864 685.622 134.233 679.797 139.339C674.012 144.446 666.293 147 656.639 147C649.898 147 643.925 145.304 638.724 141.914C633.563 138.523 629.568 133.73 626.739 127.534C623.91 121.297 622.473 114.18 622.432 106.185V94.3173C622.432 86.1962 623.847 78.996 626.677 72.7168C629.507 66.4375 633.563 61.6025 638.849 58.2118C644.175 54.7791 650.292 53.0628 657.2 53.0628C666.938 53.0628 674.616 55.721 680.233 61.0374C685.893 66.312 689.181 73.6168 690.097 82.9519H682.356C680.442 67.4213 672.057 59.656 657.2 59.656C648.961 59.656 642.386 62.7537 637.475 68.9492C632.607 75.1448 630.173 83.7054 630.173 94.6313V105.808C630.173 116.357 632.544 124.772 637.288 131.051C642.074 137.33 648.523 140.47 656.639 140.47C664.67 140.47 670.725 138.544 674.803 134.693C678.881 130.8 681.399 124.981 682.356 117.236H690.097ZM698.897 110.769C698.897 104.239 700.146 98.3566 702.643 93.1242C705.182 87.8916 708.739 83.831 713.317 80.9426C717.935 78.0122 723.159 76.5471 728.984 76.5471C737.973 76.5471 745.256 79.7286 750.832 86.0915C756.408 92.4126 759.196 100.806 759.196 111.272V112.841C759.196 119.414 757.927 125.337 755.388 130.612C752.891 135.844 749.354 139.884 744.777 142.73C740.199 145.576 734.977 147 729.109 147C720.163 147 712.88 143.839 707.262 137.518C701.686 131.155 698.897 122.741 698.897 112.276V110.769ZM706.388 112.841C706.388 120.962 708.468 127.639 712.63 132.872C716.833 138.062 722.326 140.658 729.109 140.658C735.851 140.658 741.302 138.062 745.463 132.872C749.666 127.639 751.768 120.753 751.768 112.213V110.769C751.768 105.578 750.811 100.827 748.896 96.515C746.982 92.2033 744.298 88.8753 740.844 86.5311C737.391 84.145 733.437 82.9519 728.984 82.9519C722.326 82.9519 716.896 85.5892 712.692 90.8637C708.489 96.0964 706.388 102.962 706.388 111.46V112.841ZM801.892 85.2124C800.311 84.9194 798.625 84.7729 796.835 84.7729C792.175 84.7729 788.222 86.0915 784.976 88.7288C781.771 91.3242 779.483 95.1127 778.109 100.094V146.749H770.681V78.8076H777.985L778.109 89.6079C782.063 81.5705 788.409 77.5518 797.148 77.5518C799.228 77.5518 800.872 77.8238 802.079 78.3681L801.892 85.2124ZM838.658 147C832.915 147 827.713 145.576 823.052 142.73C818.434 139.884 814.833 135.927 812.254 130.863C809.674 125.755 808.384 120.042 808.384 113.72V111.021C808.384 104.49 809.632 98.6078 812.129 93.3754C814.668 88.1428 818.184 84.0403 822.678 81.0681C827.173 78.0541 832.041 76.5471 837.284 76.5471C845.482 76.5471 851.974 79.3727 856.759 85.024C861.587 90.6335 864 98.3154 864 108.069V112.276H815.811V113.72C815.811 121.423 817.996 127.849 822.366 132.997C826.777 138.105 832.311 140.658 838.97 140.658C842.965 140.658 846.481 139.925 849.518 138.46C852.599 136.995 855.387 134.651 857.884 131.428L862.565 135.006C857.072 143.002 849.103 147 838.658 147ZM837.284 82.9519C831.667 82.9519 826.923 85.024 823.052 89.1683C819.224 93.3126 816.894 98.88 816.061 105.871H856.572V105.055C856.365 98.5244 854.512 93.2079 851.016 89.1055C847.521 85.0032 842.944 82.9519 837.284 82.9519Z" fill="#4D4D4D"/>
<circle cx="100" cy="100" r="100" fill="#FFB040"/>
<path fill-rule="evenodd" clip-rule="evenodd" d="M121.472 57.5291C135.34 62.6161 145.329 70.1531 143.039 84.6156C141.306 95.1436 135.788 100.289 128.331 102.105C138.254 107.658 143.03 116.087 137.921 130.872C131.567 149.415 117.345 151.097 98.5073 147.505L93.6577 167.075L82.7124 164.363L87.5619 144.793C86.3709 144.476 85.1158 144.184 83.8285 143.884C82.1084 143.484 80.3308 143.07 78.5718 142.565L73.7223 162.136L62.7969 159.429L67.6465 139.858L45.8828 133.932L51.2923 120.094C51.2923 120.094 59.5069 122.353 59.3795 122.211C62.4263 122.952 63.9161 120.824 64.5264 119.334L72.2926 87.9602L77.9447 65.6613C78.1889 63.251 77.4338 60.0977 72.9821 58.898C73.2851 58.7205 64.9681 56.9124 64.9681 56.9124L68.2091 43.7982L90.6397 49.356L95.3899 30.1863L106.69 32.9863L101.94 52.156C104.137 52.6337 106.284 53.1888 108.454 53.7501L108.454 53.7501L108.455 53.7503C109.167 53.9345 109.882 54.1193 110.602 54.3023L115.352 35.1325L126.347 37.8568L121.472 57.5291ZM91.4867 88.3536C91.6576 88.4046 91.8406 88.4596 92.0349 88.5179C98.606 90.4923 118.09 96.3464 121.372 83.312C124.428 70.9223 107.548 67.1379 99.7048 65.3795C98.7784 65.1718 97.9781 64.9924 97.3516 64.8304L91.4867 88.3536ZM82.8401 127C82.4947 126.897 82.1764 126.803 81.8879 126.718L87.7528 103.195C88.4458 103.375 89.3223 103.581 90.3359 103.819C99.5817 105.991 120.233 110.843 117.023 123.302C113.908 136.239 90.9354 129.408 82.8401 127Z" fill="white"/>
</svg>
