<?xml version="1.0" encoding="utf-8"?>
<!-- Generator: Adobe Illustrator 18.1.1, SVG Export Plug-In . SVG Version: 6.00 Build 0)  -->
<!DOCTYPE svg PUBLIC "-//W3C//DTD SVG 1.0//EN" "http://www.w3.org/TR/2001/REC-SVG-20010904/DTD/svg10.dtd">
<svg version="1.0"
	 id="svg2" xmlns:cc="http://creativecommons.org/ns#" xmlns:inkscape="http://www.inkscape.org/namespaces/inkscape" xmlns:sodipodi="http://sodipodi.sourceforge.net/DTD/sodipodi-0.dtd" xmlns:svg="http://www.w3.org/2000/svg" xmlns:dc="http://purl.org/dc/elements/1.1/" xmlns:rdf="http://www.w3.org/1999/02/22-rdf-syntax-ns#" sodipodi:docname="bitcoin-core.svg" inkscape:export-xdpi="90" inkscape:version="0.91 r13725" inkscape:export-ydpi="90"
	 xmlns="http://www.w3.org/2000/svg" xmlns:xlink="http://www.w3.org/1999/xlink" x="0px" y="0px" viewBox="-325 278.3 190 40"
	 enable-background="new -325 278.3 190 40" xml:space="preserve">
<sodipodi:namedview  inkscape:cy="9.4057847" id="namedview20" borderopacity="1" bordercolor="#666666" inkscape:zoom="11.313708" showgrid="false" inkscape:cx="29.402467" objecttolerance="10" pagecolor="#ffffff" guidetolerance="10" gridtolerance="10" inkscape:current-layer="svg2" inkscape:window-maximized="1" inkscape:window-y="24" inkscape:window-x="65" inkscape:window-height="1026" inkscape:window-width="1615" inkscape:pageshadow="2" inkscape:pageopacity="0">
	</sodipodi:namedview>
<path id="path8" inkscape:connector-curvature="0" fill="#F7931A" d="M-295.4,303.5c-2,8-10.1,12.9-18.2,10.9
	c-8-2-12.9-10.1-10.9-18.2c2-8,10.1-12.9,18.2-10.9C-298.3,287.3-293.4,295.4-295.4,303.5z"/>
<path id="path10" inkscape:connector-curvature="0" fill="#FFFFFF" d="M-303.4,298.2c0.3-2-1.2-3.1-3.3-3.8l0.7-2.7l-1.6-0.4
	l-0.7,2.6c-0.4-0.1-0.9-0.2-1.3-0.3l0.7-2.7l-1.6-0.4l-0.7,2.7c-0.4-0.1-0.7-0.2-1.1-0.2l0,0l-2.3-0.6l-0.4,1.8c0,0,1.2,0.3,1.2,0.3
	c0.7,0.2,0.8,0.6,0.8,1l-0.8,3.1c0,0,0.1,0,0.2,0.1c-0.1,0-0.1,0-0.2,0l-1.1,4.3c-0.1,0.2-0.3,0.5-0.8,0.4c0,0-1.2-0.3-1.2-0.3
	l-0.8,1.9l2.1,0.5c0.4,0.1,0.8,0.2,1.2,0.3l-0.7,2.7l1.6,0.4l0.7-2.7c0.4,0.1,0.9,0.2,1.3,0.3l-0.7,2.7l1.6,0.4l0.7-2.7
	c2.8,0.5,4.9,0.3,5.8-2.2c0.7-2,0-3.2-1.5-4C-304.4,300.4-303.6,299.7-303.4,298.2L-303.4,298.2z M-307.1,303.5
	c-0.5,2-4,0.9-5.1,0.7l0.9-3.6C-310.2,300.8-306.6,301.4-307.1,303.5L-307.1,303.5z M-306.6,298.2c-0.5,1.9-3.3,0.9-4.3,0.7l0.8-3.3
	C-309.1,295.8-306.2,296.3-306.6,298.2L-306.6,298.2z"/>
<g>
	<path d="M-288.2,289.9h8c1.2,0,2.2,0.1,3,0.4c0.8,0.3,1.4,0.7,1.9,1.2c0.5,0.5,0.8,1,1,1.7s0.3,1.3,0.3,1.9c0,0.5-0.1,1.1-0.3,1.5
		c-0.2,0.5-0.5,0.9-0.8,1.3c-0.3,0.4-0.8,0.7-1.2,0.9s-1,0.4-1.6,0.5l0.1,0.1c0.1,0,0.4,0,0.9,0.2c0.5,0.1,1,0.4,1.5,0.7
		c0.5,0.4,1,0.9,1.4,1.5c0.4,0.6,0.6,1.5,0.6,2.5c0,0.9-0.2,1.7-0.5,2.4c-0.3,0.7-0.8,1.3-1.4,1.7c-0.6,0.5-1.3,0.8-2.2,1.1
		s-1.8,0.4-2.9,0.4h-8V289.9z M-280.2,298.9c1.7,0,3-0.4,3.8-1.1s1.3-1.7,1.3-3c0-0.7-0.1-1.3-0.4-1.8s-0.7-0.9-1.1-1.2
		s-1-0.5-1.6-0.7c-0.6-0.1-1.2-0.2-1.9-0.2h-6.8v8H-280.2z M-280.2,308.8c1.8,0,3.2-0.4,4.2-1.1c1-0.8,1.5-1.9,1.5-3.4
		c0-0.9-0.2-1.6-0.5-2.1c-0.4-0.5-0.8-1-1.4-1.3c-0.6-0.3-1.2-0.5-1.8-0.7c-0.7-0.1-1.3-0.2-2-0.2h-6.8v8.8H-280.2z"/>
	<path d="M-270.6,292.7v-2.9h1.1v2.9H-270.6z M-270.6,309.8v-14.4h1.1v14.4H-270.6z"/>
	<path d="M-260.8,296.4h-3.1v10c0,0.6,0.1,1,0.2,1.4c0.1,0.3,0.3,0.6,0.6,0.8c0.3,0.2,0.6,0.3,1,0.3c0.4,0,0.8,0,1.3,0v0.9
		c-0.5,0-1.1,0-1.6,0c-0.5,0-1-0.2-1.4-0.4s-0.7-0.6-0.9-1s-0.3-1.1-0.3-1.9v-10h-2.7v-0.9h2.7V291h1.1v4.5h3.1V296.4z"/>
	<path d="M-248,299.9c-0.1-0.6-0.2-1.2-0.5-1.7s-0.6-0.9-1-1.2c-0.4-0.3-0.9-0.6-1.5-0.7c-0.6-0.2-1.2-0.3-1.8-0.3
		c-0.9,0-1.7,0.2-2.4,0.5c-0.7,0.4-1.3,0.8-1.7,1.5c-0.5,0.6-0.8,1.3-1.1,2.1c-0.2,0.8-0.4,1.6-0.4,2.4c0,1,0.1,1.9,0.3,2.7
		c0.2,0.8,0.6,1.5,1,2.1c0.5,0.6,1,1.1,1.7,1.4s1.5,0.5,2.4,0.5c0.7,0,1.3-0.1,1.9-0.3c0.6-0.2,1.1-0.5,1.5-0.9
		c0.4-0.4,0.8-0.9,1.1-1.4c0.3-0.5,0.5-1.2,0.6-1.8h1.1c-0.1,0.9-0.3,1.6-0.7,2.3c-0.4,0.7-0.8,1.2-1.3,1.7s-1.2,0.8-1.8,1
		c-0.7,0.2-1.4,0.4-2.2,0.4c-1.2,0-2.2-0.2-3-0.6c-0.8-0.4-1.5-1-2-1.7c-0.5-0.7-0.9-1.5-1.2-2.4c-0.3-0.9-0.4-1.9-0.4-2.9
		c0-1,0.1-2,0.4-2.9c0.3-0.9,0.7-1.7,1.3-2.4c0.6-0.7,1.2-1.2,2.1-1.6s1.8-0.6,2.8-0.6c0.8,0,1.5,0.1,2.2,0.3s1.3,0.5,1.8,0.9
		c0.5,0.4,1,0.9,1.3,1.5c0.3,0.6,0.5,1.3,0.6,2.1H-248z"/>
	<path d="M-245,302.6c0-1,0.1-2,0.4-2.9s0.7-1.7,1.3-2.4c0.6-0.7,1.2-1.2,2.1-1.6c0.8-0.4,1.8-0.6,2.8-0.6c1.1,0,2,0.2,2.8,0.6
		s1.5,0.9,2.1,1.6c0.6,0.7,1,1.5,1.3,2.4c0.3,0.9,0.4,1.9,0.4,2.9s-0.1,2-0.4,2.9c-0.3,0.9-0.7,1.7-1.3,2.4
		c-0.6,0.7-1.2,1.2-2.1,1.6c-0.8,0.4-1.8,0.6-2.8,0.6c-1.1,0-2-0.2-2.8-0.6c-0.8-0.4-1.5-0.9-2.1-1.6c-0.6-0.7-1-1.5-1.3-2.4
		C-244.9,304.6-245,303.7-245,302.6z M-244,302.6c0,0.9,0.1,1.7,0.4,2.5c0.2,0.8,0.6,1.5,1.1,2.1s1,1.1,1.7,1.5
		c0.7,0.4,1.5,0.5,2.4,0.5c0.9,0,1.7-0.2,2.4-0.5c0.7-0.4,1.3-0.9,1.7-1.5c0.5-0.6,0.8-1.3,1.1-2.1c0.2-0.8,0.4-1.6,0.4-2.5
		s-0.1-1.7-0.4-2.5c-0.2-0.8-0.6-1.5-1.1-2.1c-0.5-0.6-1-1.1-1.7-1.5c-0.7-0.4-1.5-0.5-2.4-0.5c-0.9,0-1.7,0.2-2.4,0.5
		c-0.7,0.4-1.3,0.9-1.7,1.5c-0.5,0.6-0.8,1.3-1.1,2.1S-244,301.8-244,302.6z"/>
	<path d="M-229.1,292.7v-2.9h1.1v2.9H-229.1z M-229.1,309.8v-14.4h1.1v14.4H-229.1z"/>
	<path d="M-224.6,295.5h1.1v3.1h0.1c0.2-0.5,0.5-1,0.8-1.4c0.3-0.4,0.7-0.8,1.2-1.1c0.5-0.3,1-0.5,1.5-0.7c0.5-0.1,1.1-0.2,1.7-0.2
		c0.8,0,1.6,0.1,2.1,0.3c0.6,0.2,1.1,0.5,1.4,0.8c0.4,0.3,0.7,0.7,0.9,1.1c0.2,0.4,0.4,0.8,0.5,1.3c0.1,0.4,0.1,0.8,0.2,1.2
		c0,0.4,0,0.8,0,1v8.9h-1.1v-9.1c0-0.4,0-0.8-0.1-1.3c-0.1-0.5-0.2-1.1-0.5-1.6s-0.7-0.9-1.2-1.3c-0.6-0.4-1.3-0.5-2.3-0.5
		c-0.8,0-1.5,0.1-2.2,0.4c-0.6,0.3-1.2,0.7-1.6,1.2c-0.4,0.5-0.8,1.2-1,1.9c-0.2,0.7-0.3,1.5-0.3,2.4v7.8h-1.1V295.5z"/>
	<path d="M-197.4,292.7c-1-0.7-2.2-1.1-3.6-1.1c-1.2,0-2.2,0.2-3.1,0.7s-1.5,1-2.1,1.8c-0.5,0.8-1,1.6-1.2,2.6c-0.3,1-0.4,2-0.4,3
		c0,1.1,0.1,2.2,0.4,3.2c0.3,1,0.7,1.9,1.2,2.7c0.6,0.8,1.3,1.4,2.1,1.8c0.9,0.4,1.9,0.7,3.1,0.7c0.9,0,1.7-0.1,2.3-0.4
		c0.7-0.3,1.3-0.7,1.8-1.2c0.5-0.5,0.9-1.1,1.2-1.8c0.3-0.7,0.4-1.5,0.5-2.3h2.7c-0.3,2.5-1.1,4.5-2.6,5.9c-1.5,1.4-3.5,2.1-6,2.1
		c-1.5,0-2.9-0.3-4.1-0.8s-2.1-1.3-2.9-2.2s-1.3-2-1.7-3.3c-0.4-1.3-0.6-2.6-0.6-4.1c0-1.5,0.2-2.8,0.6-4.1c0.4-1.3,1-2.4,1.8-3.3
		c0.8-1,1.8-1.7,3-2.3c1.2-0.5,2.5-0.8,4.1-0.8c1,0,2,0.1,3,0.4s1.8,0.7,2.5,1.2c0.7,0.5,1.3,1.2,1.8,2c0.5,0.8,0.8,1.7,1,2.8h-2.7
		C-195.7,294.5-196.4,293.4-197.4,292.7z"/>
	<path d="M-190,299.6c0.3-0.9,0.7-1.7,1.3-2.4c0.6-0.7,1.3-1.2,2.2-1.6c0.9-0.4,1.9-0.6,3-0.6c1.2,0,2.2,0.2,3,0.6s1.6,0.9,2.2,1.6
		c0.6,0.7,1,1.5,1.3,2.4c0.3,0.9,0.4,1.9,0.4,3c0,1.1-0.1,2.1-0.4,3c-0.3,0.9-0.7,1.7-1.3,2.4c-0.6,0.7-1.3,1.2-2.2,1.6
		s-1.9,0.6-3,0.6c-1.1,0-2.1-0.2-3-0.6c-0.9-0.4-1.6-0.9-2.2-1.6c-0.6-0.7-1-1.5-1.3-2.4c-0.3-0.9-0.4-1.9-0.4-3
		C-190.5,301.6-190.3,300.6-190,299.6z M-187.6,305c0.2,0.7,0.6,1.2,1,1.7s0.9,0.8,1.4,1s1.1,0.4,1.7,0.4c0.6,0,1.2-0.1,1.7-0.4
		c0.5-0.2,1-0.6,1.4-1s0.7-1,1-1.7c0.2-0.7,0.3-1.5,0.3-2.3c0-0.9-0.1-1.7-0.3-2.3c-0.2-0.7-0.6-1.3-1-1.7s-0.9-0.8-1.4-1.1
		c-0.6-0.2-1.1-0.4-1.7-0.4c-0.6,0-1.2,0.1-1.7,0.4s-1,0.6-1.4,1.1s-0.7,1-1,1.7c-0.2,0.7-0.4,1.5-0.4,2.3
		C-187.9,303.5-187.8,304.3-187.6,305z"/>
	<path d="M-171.5,295.4v3h0.1c0.6-1.2,1.3-2,2.1-2.6c0.8-0.6,1.9-0.8,3.2-0.8v2.5c-1,0-1.8,0.1-2.4,0.4c-0.7,0.3-1.2,0.6-1.6,1.1
		c-0.4,0.5-0.7,1.1-0.9,1.8s-0.3,1.5-0.3,2.5v6.4h-2.4v-14.5H-171.5z"/>
	<path d="M-154.6,308.9c-1.1,0.8-2.4,1.2-4.1,1.2c-1.2,0-2.2-0.2-3-0.6s-1.6-0.9-2.1-1.6c-0.6-0.7-1-1.5-1.3-2.4
		c-0.3-0.9-0.5-1.9-0.5-3c0-1.1,0.2-2.1,0.5-3s0.8-1.7,1.4-2.4c0.6-0.7,1.3-1.2,2.2-1.6s1.7-0.6,2.7-0.6c1.3,0,2.4,0.3,3.2,0.8
		c0.8,0.5,1.5,1.2,2,2c0.5,0.8,0.9,1.7,1.1,2.7c0.2,1,0.3,1.9,0.2,2.8h-10.8c0,0.6,0.1,1.2,0.2,1.8c0.2,0.6,0.4,1.1,0.8,1.5
		s0.8,0.8,1.4,1c0.6,0.3,1.3,0.4,2,0.4c1,0,1.8-0.2,2.5-0.7c0.6-0.5,1.1-1.2,1.3-2.1h2.4C-152.8,306.9-153.5,308.1-154.6,308.9z
		 M-155.1,299.6c-0.2-0.5-0.5-0.9-0.9-1.3c-0.4-0.4-0.8-0.7-1.3-0.9s-1-0.3-1.6-0.3c-0.6,0-1.2,0.1-1.7,0.3
		c-0.5,0.2-0.9,0.5-1.3,0.9c-0.4,0.4-0.6,0.8-0.8,1.3c-0.2,0.5-0.3,1-0.4,1.6h8.3C-154.8,300.7-154.9,300.1-155.1,299.6z"/>
</g>
</svg>
